<svg width="164" height="62" viewBox="0 0 164 62" fill="none" xmlns="http://www.w3.org/2000/svg">
<path d="M28.8232 43.8792C30.0259 43.8792 30.9654 43.5422 31.6419 42.8683C32.3184 42.1944 32.6566 41.3458 32.6566 40.3224C32.6566 39.2242 32.3184 38.4255 31.6419 37.9263C30.9905 37.4271 30.076 37.1775 28.8984 37.1775H22.2087V43.8792H28.8232Z" fill="black"/>
<path d="M22.2087 27.5555V32.9468H28.7856C30.8903 32.9468 31.9426 32.0483 31.9426 30.2512C31.9426 29.3027 31.667 28.6163 31.1158 28.192C30.5896 27.7677 29.7127 27.5555 28.485 27.5555H22.2087Z" fill="black"/>
<path d="M47.961 44.5157C50.9425 44.5157 52.4333 42.6437 52.4333 38.8997C52.4333 35.1807 50.9425 33.3212 47.961 33.3212C44.9794 33.3212 43.4887 35.1807 43.4887 38.8997C43.4887 42.6437 44.9794 44.5157 47.961 44.5157Z" fill="black"/>
<path d="M68.2204 44.5157C71.2019 44.5157 72.6927 42.6437 72.6927 38.8997C72.6927 35.1807 71.2019 33.3212 68.2204 33.3212C65.2388 33.3212 63.748 35.1807 63.748 38.8997C63.748 42.6437 65.2388 44.5157 68.2204 44.5157Z" fill="black"/>
<path d="M88.1039 44.4408C90.9101 44.4408 92.3132 42.5438 92.3132 38.7499C92.3132 37.1026 91.9248 35.7673 91.1481 34.7439C90.3714 33.6956 89.3692 33.1714 88.1415 33.1714C86.9639 33.1714 85.9743 33.6582 85.1725 34.6316C84.3958 35.605 84.0074 36.878 84.0074 38.4504C84.0074 42.444 85.3729 44.4408 88.1039 44.4408Z" fill="black"/>
<path d="M108.152 44.5157C111.133 44.5157 112.624 42.6437 112.624 38.8997C112.624 35.1807 111.133 33.3212 108.152 33.3212C105.17 33.3212 103.68 35.1807 103.68 38.8997C103.68 42.6437 105.17 44.5157 108.152 44.5157Z" fill="black"/>
<path fill-rule="evenodd" clip-rule="evenodd" d="M145.969 11.1944C146.917 11.1944 147.686 10.4234 147.686 9.47222V1.72222C147.686 0.771065 148.455 0 149.403 0H162.283C163.231 0 164 0.771065 164 1.72222V14.6389C164 15.59 163.231 16.3611 162.283 16.3611H154.555C153.607 16.3611 152.838 17.1322 152.838 18.0833V60.2778C152.838 61.2289 152.069 62 151.12 62H1.71728C0.768851 62 0 61.2289 0 60.2778V12.9167C0 11.9655 0.768851 11.1944 1.71728 11.1944H145.969ZM17.1726 43.895V23.2499H29.4621C31.9175 23.2499 33.7841 23.8615 35.0619 25.0845C36.3397 26.2826 36.9786 27.9299 36.9786 30.0265C36.9786 31.0998 36.6905 32.0607 36.1142 32.9094C35.538 33.733 34.8114 34.3196 33.9344 34.669C34.4606 34.8687 34.9492 35.1308 35.4002 35.4553C35.8762 35.7548 36.2771 36.1541 36.6028 36.6533C36.9536 37.1276 37.2292 37.7016 37.4296 38.3755C37.6301 39.0245 37.7303 39.7983 37.7303 40.6968C37.7303 42.9681 36.9661 44.7777 35.4378 46.1255C33.9094 47.4484 31.5667 48.1098 28.4098 48.1098H22.207V43.895H17.1726ZM47.961 48.5966C46.4577 48.5966 45.1172 48.3594 43.9396 47.8852C42.7621 47.411 41.7599 46.7495 40.933 45.9009C40.1313 45.0523 39.5174 44.0289 39.0915 42.8309C38.6656 41.6328 38.4526 40.3224 38.4526 38.8997C38.4526 37.452 38.6656 36.1292 39.0915 34.9311C39.5425 33.733 40.1814 32.7097 41.0082 31.8611C41.835 31.0124 42.8247 30.3635 43.9772 29.9142C45.1548 29.44 46.4827 29.2028 47.961 29.2028C49.4142 29.2028 50.717 29.44 51.8696 29.9142C53.0221 30.3635 53.9993 31.0124 54.801 31.8611C55.6278 32.6847 56.2542 33.6956 56.6802 34.8937C57.1312 36.0917 57.3566 37.4271 57.3566 38.8997C57.3566 40.3723 57.1312 41.7077 56.6802 42.9057C56.2542 44.0788 55.6278 45.0897 54.801 45.9383C53.9993 46.787 53.0096 47.4484 51.832 47.9227C50.6795 48.3719 49.3891 48.5966 47.961 48.5966ZM68.2204 48.5966C66.7171 48.5966 65.3766 48.3594 64.199 47.8852C63.0214 47.411 62.0192 46.7495 61.1924 45.9009C60.3907 45.0523 59.7768 44.0289 59.3509 42.8309C58.9249 41.6328 58.712 40.3224 58.712 38.8997C58.712 37.452 58.9249 36.1292 59.3509 34.9311C59.8019 33.733 60.4408 32.7097 61.2676 31.8611C62.0944 31.0124 63.0841 30.3635 64.2366 29.9142C65.4142 29.44 66.7421 29.2028 68.2204 29.2028C69.6736 29.2028 70.9764 29.44 72.129 29.9142C73.2815 30.3635 74.2586 31.0124 75.0604 31.8611C75.8872 32.6847 76.5136 33.6956 76.9395 34.8937C77.3905 36.0917 77.616 37.4271 77.616 38.8997C77.616 40.3723 77.3905 41.7077 76.9395 42.9057C76.5136 44.0788 75.8872 45.0897 75.0604 45.9383C74.2586 46.787 73.269 47.4484 72.0914 47.9227C70.9389 48.3719 69.6485 48.5966 68.2204 48.5966ZM79.3848 54.25V29.6896H84.0826L84.1202 31.9359C85.2477 30.1139 86.9639 29.2028 89.269 29.2028C90.4215 29.2028 91.4864 29.4275 92.4635 29.8768C93.4657 30.326 94.3176 30.975 95.0191 31.8236C95.7207 32.6723 96.2719 33.7081 96.6728 34.9311C97.0737 36.1541 97.2741 37.5394 97.2741 39.0869C97.2741 40.4846 97.0987 41.7701 96.7479 42.9432C96.4222 44.0913 95.9336 45.0897 95.2822 45.9383C94.6308 46.787 93.829 47.4484 92.8769 47.9227C91.9499 48.3719 90.885 48.5966 89.6824 48.5966C87.4024 48.5966 85.5734 47.6356 84.1953 45.7137V54.25H79.3848ZM108.152 48.5966C106.649 48.5966 105.308 48.3594 104.131 47.8852C102.953 47.411 101.951 46.7495 101.124 45.9009C100.322 45.0523 99.7084 44.0289 99.2824 42.8309C98.8565 41.6328 98.6435 40.3224 98.6435 38.8997C98.6435 37.452 98.8565 36.1292 99.2824 34.9311C99.7334 33.733 100.372 32.7097 101.199 31.8611C102.026 31.0124 103.016 30.3635 104.168 29.9142C105.346 29.44 106.674 29.2028 108.152 29.2028C109.605 29.2028 110.908 29.44 112.061 29.9142C113.213 30.3635 114.19 31.0124 114.992 31.8611C115.819 32.6847 116.445 33.6956 116.871 34.8937C117.322 36.0917 117.548 37.4271 117.548 38.8997C117.548 40.3723 117.322 41.7077 116.871 42.9057C116.445 44.0788 115.819 45.0897 114.992 45.9383C114.19 46.787 113.201 47.4484 112.023 47.9227C110.87 48.3719 109.58 48.5966 108.152 48.5966ZM130.441 35.2681C130.315 34.3695 129.99 33.7455 129.464 33.3961C128.937 33.0217 128.111 32.8345 126.983 32.8345C126.056 32.8345 125.342 32.9593 124.841 33.2089C124.34 33.4335 124.089 33.8204 124.089 34.3695C124.089 34.9186 124.34 35.3429 124.841 35.6425C125.342 35.917 126.094 36.1916 127.096 36.4661C128.148 36.7657 129.15 37.0402 130.103 37.2898C131.055 37.5144 131.894 37.764 132.621 38.0386C133.598 38.438 134.349 38.9871 134.876 39.6859C135.402 40.3598 135.665 41.2958 135.665 42.4939C135.665 44.4158 134.976 45.9134 133.598 46.9867C132.245 48.0599 130.24 48.5966 127.584 48.5966C124.728 48.5966 122.536 47.9975 121.008 46.7995C119.504 45.6014 118.728 44.0664 118.677 42.1944H123.713C123.713 43.068 124.052 43.7419 124.728 44.2161C125.405 44.6904 126.344 44.9275 127.547 44.9275C128.424 44.9275 129.188 44.7902 129.839 44.5157C130.491 44.2161 130.817 43.7169 130.817 43.0181C130.817 42.3691 130.516 41.9074 129.915 41.6328C129.338 41.3582 128.649 41.1211 127.848 40.9214C126.294 40.547 125.041 40.2101 124.089 39.9106C123.137 39.6111 122.335 39.2491 121.684 38.8248C120.807 38.2757 120.193 37.6517 119.842 36.9529C119.517 36.254 119.354 35.4927 119.354 34.669C119.354 33.8953 119.492 33.1714 119.767 32.4975C120.043 31.8236 120.494 31.2495 121.12 30.7753C121.747 30.2761 122.548 29.8892 123.526 29.6147C124.528 29.3401 125.73 29.2028 127.134 29.2028C129.814 29.2028 131.781 29.7145 133.034 30.7379C134.312 31.7612 135.013 33.2713 135.139 35.2681H130.441Z" fill="black"/>
</svg>
