<?xml version="1.0" standalone="no"?>
<!DOCTYPE svg PUBLIC "-//W3C//DTD SVG 20010904//EN"
 "http://www.w3.org/TR/2001/REC-SVG-20010904/DTD/svg10.dtd">
<svg version="1.0" xmlns="http://www.w3.org/2000/svg"
 width="700.000000pt" height="700.000000pt" viewBox="0 0 700.000000 700.000000"
 preserveAspectRatio="xMidYMid meet">
<metadata>
Created by potrace 1.14, written by Peter Selinger 2001-2017
</metadata>
<g transform="translate(0.000000,700.000000) scale(0.100000,-0.100000)"
fill="#000000" stroke="none">
<path d="M20 3505 l0 -3495 3490 0 3490 0 0 3495 0 3495 -3490 0 -3490 0 0
-3495z m5490 2145 l0 -460 -1315 0 -1315 0 0 -645 0 -645 1135 0 1135 0 0
-460 0 -460 -1135 0 -1135 0 0 -1155 0 -1155 -550 0 -550 0 0 2720 0 2720
1865 0 1865 0 0 -460z"/>
</g>
</svg>
