<?xml version="1.0" standalone="no"?>
<!DOCTYPE svg PUBLIC "-//W3C//DTD SVG 20010904//EN"
 "http://www.w3.org/TR/2001/REC-SVG-20010904/DTD/svg10.dtd">
<svg version="1.0" xmlns="http://www.w3.org/2000/svg"
 width="365.000000pt" height="118.000000pt" viewBox="0 0 365.000000 118.000000"
 preserveAspectRatio="xMidYMid meet">
<metadata>
Created by potrace 1.16, written by Peter Selinger 2001-2019
</metadata>
<g transform="translate(0.000000,118.000000) scale(0.100000,-0.100000)"
fill="#000000" stroke="none">
<path d="M85 1115 c-24 -87 -17 -179 18 -237 14 -24 123 -140 241 -258 l215
-214 29 27 29 28 192 -216 c106 -118 202 -222 214 -230 77 -54 190 34 162 127
-4 12 -235 251 -513 531 -455 455 -510 507 -538 507 -31 0 -32 -2 -49 -65z"/>
<path d="M798 1053 c-136 -139 -144 -151 -157 -217 l-8 -44 81 -81 82 -82 55
12 c51 11 61 19 197 152 l142 141 -30 30 -30 31 -93 -93 c-88 -87 -93 -91
-110 -75 -16 17 -12 22 75 110 l92 93 -29 30 -29 30 -93 -92 c-92 -91 -92 -92
-113 -73 l-21 19 93 93 92 92 -24 26 c-13 14 -29 25 -35 25 -6 0 -68 -57 -137
-127z"/>
<path d="M1751 739 c-29 -11 -50 -37 -51 -61 0 -10 -7 -18 -15 -18 -10 0 -15
-11 -15 -35 0 -24 5 -35 15 -35 12 0 15 -16 15 -85 l0 -85 40 0 40 0 0 85 c0
78 2 85 20 85 16 0 20 7 20 34 0 28 -4 35 -22 39 l-23 4 23 8 c17 6 22 15 22
41 0 29 -3 34 -22 33 -13 0 -34 -5 -47 -10z"/>
<path d="M3570 685 c0 -42 -2 -45 -19 -35 -36 19 -86 12 -114 -16 -89 -89 0
-259 106 -203 16 9 22 9 25 0 2 -6 21 -11 43 -11 l39 0 0 155 0 155 -40 0 -40
0 0 -45z"/>
<path d="M1213 710 c-27 -11 -43 -40 -43 -77 0 -40 24 -69 68 -83 42 -14 74
-39 66 -51 -9 -15 -41 -10 -48 6 -6 17 -86 22 -86 5 0 -30 33 -69 66 -80 79
-26 154 13 154 80 0 43 -25 70 -87 95 -24 10 -43 23 -43 30 0 21 16 26 30 10
8 -9 30 -15 57 -15 41 0 44 2 38 23 -12 41 -52 67 -103 66 -26 0 -57 -4 -69
-9z"/>
<path d="M2680 570 l0 -150 40 0 40 0 0 60 0 60 45 0 c43 0 45 1 45 30 0 29
-2 30 -45 30 -41 0 -45 2 -45 25 0 24 3 25 60 25 l60 0 0 35 0 35 -100 0 -100
0 0 -150z"/>
<path d="M1444 637 c-32 -28 -44 -108 -24 -157 22 -53 93 -76 138 -44 20 14
22 14 22 0 0 -12 10 -16 35 -16 l35 0 0 120 0 120 -35 0 c-26 0 -35 -4 -35
-17 0 -15 -1 -15 -18 0 -27 25 -86 22 -118 -6z"/>
<path d="M1855 635 c-48 -47 -19 -105 60 -119 40 -8 54 -23 29 -33 -10 -4 -22
0 -29 10 -16 22 -85 24 -85 3 0 -8 10 -27 23 -42 33 -38 110 -45 150 -14 23
18 28 29 25 59 -2 30 -9 39 -38 53 l-35 18 38 0 c46 0 49 20 8 61 -40 39 -109
41 -146 4z"/>
<path d="M2097 649 c-43 -25 -61 -122 -33 -178 25 -47 91 -65 134 -35 20 14
22 14 22 0 0 -12 10 -16 35 -16 l35 0 0 120 0 120 -34 0 c-19 0 -36 -6 -39
-12 -4 -10 -7 -10 -18 0 -16 14 -77 15 -102 1z"/>
<path d="M2330 490 l0 -170 40 0 40 0 0 59 0 58 41 -11 c52 -13 87 4 113 57
49 101 -43 216 -135 167 -13 -7 -19 -7 -19 0 0 5 -18 10 -40 10 l-40 0 0 -170z"/>
<path d="M2955 651 c-56 -23 -82 -109 -50 -170 28 -54 107 -76 165 -46 43 22
60 53 60 108 0 42 -5 54 -34 83 -29 29 -41 34 -77 33 -24 0 -53 -4 -64 -8z"/>
<path d="M3201 647 c-34 -20 -50 -55 -51 -109 0 -66 37 -108 100 -115 89 -9
152 56 136 142 -11 59 -44 87 -107 92 -34 2 -63 -2 -78 -10z"/>
<path d="M188 343 c-129 -131 -178 -186 -182 -209 -10 -47 15 -100 57 -120 67
-32 85 -21 280 174 l177 177 -78 78 -78 77 -176 -177z"/>
</g>
</svg>
